<svg width="18" height="18" viewBox="0 0 18 18" fill="none" xmlns="http://www.w3.org/2000/svg">
<path d="M14.4716 3.2623C12.5859 1.97658 10.2573 2.57658 9.0002 4.04801C7.74306 2.57658 5.41449 1.96944 3.52877 3.2623C2.52877 3.94801 1.9002 5.10515 1.85734 6.32658C1.75734 9.09801 4.21449 11.3194 7.96449 14.7266L8.03591 14.7909C8.57877 15.2837 9.41449 15.2837 9.95734 14.7837L10.0359 14.7123C13.7859 11.3123 16.2359 9.09087 16.1431 6.31944C16.1002 5.10515 15.4716 3.94801 14.4716 3.2623ZM9.07163 13.6623L9.0002 13.7337L8.92877 13.6623C5.52877 10.5837 3.28591 8.54801 3.28591 6.48373C3.28591 5.05515 4.35734 3.98373 5.78591 3.98373C6.88591 3.98373 7.95734 4.69087 8.33591 5.66944H9.67163C10.0431 4.69087 11.1145 3.98373 12.2145 3.98373C13.6431 3.98373 14.7145 5.05515 14.7145 6.48373C14.7145 8.54801 12.4716 10.5837 9.07163 13.6623Z" fill="#1D1E1F"/>
</svg>
