<svg width="97" height="37" viewBox="0 0 97 37" fill="none" xmlns="http://www.w3.org/2000/svg">
<g filter="url(#filter0_d_40_47)">
<rect x="8" y="6" width="81" height="21" rx="4" fill="url(#paint0_linear_40_47)"/>
<g filter="url(#filter1_d_40_47)">
<path d="M18.065 21.15C17.235 21.15 16.53 21 15.95 20.7C15.37 20.4 14.85 19.96 14.39 19.38L15.56 18.21C15.85 18.63 16.195 18.96 16.595 19.2C16.995 19.43 17.505 19.545 18.125 19.545C18.705 19.545 19.165 19.425 19.505 19.185C19.855 18.945 20.03 18.615 20.03 18.195C20.03 17.845 19.94 17.56 19.76 17.34C19.58 17.12 19.34 16.94 19.04 16.8C18.75 16.65 18.425 16.52 18.065 16.41C17.715 16.29 17.36 16.16 17 16.02C16.65 15.87 16.325 15.685 16.025 15.465C15.735 15.245 15.5 14.96 15.32 14.61C15.14 14.26 15.05 13.815 15.05 13.275C15.05 12.655 15.2 12.13 15.5 11.7C15.81 11.26 16.225 10.925 16.745 10.695C17.265 10.465 17.845 10.35 18.485 10.35C19.175 10.35 19.79 10.485 20.33 10.755C20.88 11.025 21.325 11.37 21.665 11.79L20.495 12.96C20.195 12.62 19.88 12.37 19.55 12.21C19.23 12.04 18.86 11.955 18.44 11.955C17.92 11.955 17.51 12.06 17.21 12.27C16.92 12.48 16.775 12.775 16.775 13.155C16.775 13.475 16.865 13.735 17.045 13.935C17.225 14.125 17.46 14.29 17.75 14.43C18.05 14.56 18.375 14.685 18.725 14.805C19.085 14.925 19.44 15.06 19.79 15.21C20.15 15.36 20.475 15.555 20.765 15.795C21.065 16.025 21.305 16.325 21.485 16.695C21.665 17.065 21.755 17.53 21.755 18.09C21.755 19.03 21.42 19.775 20.75 20.325C20.09 20.875 19.195 21.15 18.065 21.15ZM26.205 21.15C25.595 21.15 25.05 21.015 24.57 20.745C24.1 20.475 23.73 20.105 23.46 19.635C23.2 19.155 23.07 18.605 23.07 17.985V13.8H24.72V17.91C24.72 18.26 24.775 18.56 24.885 18.81C25.005 19.05 25.175 19.235 25.395 19.365C25.625 19.495 25.895 19.56 26.205 19.56C26.685 19.56 27.05 19.42 27.3 19.14C27.56 18.85 27.69 18.44 27.69 17.91V13.8H29.34V17.985C29.34 18.615 29.205 19.17 28.935 19.65C28.675 20.12 28.31 20.49 27.84 20.76C27.37 21.02 26.825 21.15 26.205 21.15ZM34.854 21.15C34.304 21.15 33.814 21.035 33.384 20.805C32.954 20.565 32.614 20.24 32.364 19.83C32.124 19.42 32.004 18.955 32.004 18.435V16.365C32.004 15.845 32.129 15.38 32.379 14.97C32.629 14.56 32.969 14.24 33.399 14.01C33.829 13.77 34.314 13.65 34.854 13.65C35.504 13.65 36.089 13.82 36.609 14.16C37.139 14.49 37.554 14.94 37.854 15.51C38.164 16.07 38.319 16.705 38.319 17.415C38.319 18.115 38.164 18.75 37.854 19.32C37.554 19.88 37.139 20.325 36.609 20.655C36.089 20.985 35.504 21.15 34.854 21.15ZM34.584 19.59C34.984 19.59 35.334 19.5 35.634 19.32C35.944 19.13 36.184 18.87 36.354 18.54C36.534 18.21 36.624 17.83 36.624 17.4C36.624 16.97 36.534 16.59 36.354 16.26C36.184 15.93 35.944 15.675 35.634 15.495C35.334 15.305 34.984 15.21 34.584 15.21C34.184 15.21 33.829 15.305 33.519 15.495C33.209 15.675 32.969 15.93 32.799 16.26C32.629 16.59 32.544 16.97 32.544 17.4C32.544 17.83 32.629 18.21 32.799 18.54C32.969 18.87 33.209 19.13 33.519 19.32C33.829 19.5 34.184 19.59 34.584 19.59ZM30.999 24V13.8H32.649V15.735L32.364 17.49L32.649 19.23V24H30.999ZM43.0452 21.15C42.3252 21.15 41.6752 20.99 41.0952 20.67C40.5252 20.34 40.0702 19.89 39.7302 19.32C39.4002 18.75 39.2352 18.11 39.2352 17.4C39.2352 16.69 39.4002 16.055 39.7302 15.495C40.0602 14.925 40.5052 14.475 41.0652 14.145C41.6352 13.815 42.2652 13.65 42.9552 13.65C43.6252 13.65 44.2152 13.805 44.7252 14.115C45.2452 14.425 45.6502 14.85 45.9402 15.39C46.2402 15.93 46.3902 16.545 46.3902 17.235C46.3902 17.355 46.3802 17.48 46.3602 17.61C46.3502 17.73 46.3302 17.865 46.3002 18.015H40.3902V16.665H45.4452L44.8302 17.205C44.8102 16.765 44.7252 16.395 44.5752 16.095C44.4252 15.795 44.2102 15.565 43.9302 15.405C43.6602 15.245 43.3252 15.165 42.9252 15.165C42.5052 15.165 42.1402 15.255 41.8302 15.435C41.5202 15.615 41.2802 15.87 41.1102 16.2C40.9402 16.52 40.8552 16.905 40.8552 17.355C40.8552 17.805 40.9452 18.2 41.1252 18.54C41.3052 18.88 41.5602 19.145 41.8902 19.335C42.2202 19.515 42.6002 19.605 43.0302 19.605C43.4002 19.605 43.7402 19.54 44.0502 19.41C44.3702 19.28 44.6402 19.09 44.8602 18.84L45.9102 19.905C45.5602 20.315 45.1352 20.625 44.6352 20.835C44.1352 21.045 43.6052 21.15 43.0452 21.15ZM47.7129 21V13.8H49.3629V21H47.7129ZM49.3629 16.995L48.7929 16.71C48.7929 15.8 48.9929 15.065 49.3929 14.505C49.8029 13.935 50.4179 13.65 51.2379 13.65C51.5979 13.65 51.9229 13.715 52.2129 13.845C52.5029 13.975 52.7729 14.185 53.0229 14.475L51.9429 15.585C51.8129 15.445 51.6679 15.345 51.5079 15.285C51.3479 15.225 51.1629 15.195 50.9529 15.195C50.4929 15.195 50.1129 15.34 49.8129 15.63C49.5129 15.92 49.3629 16.375 49.3629 16.995ZM60.6549 21L55.7949 15.525L60.5499 10.5H62.7549L57.5049 15.96L57.5199 15.015L62.9049 21H60.6549ZM54.3099 21V10.5H56.0349V21H54.3099ZM66.4003 21.15C65.7903 21.15 65.2453 21.015 64.7653 20.745C64.2953 20.475 63.9253 20.105 63.6553 19.635C63.3953 19.155 63.2653 18.605 63.2653 17.985V13.8H64.9153V17.91C64.9153 18.26 64.9703 18.56 65.0803 18.81C65.2003 19.05 65.3703 19.235 65.5903 19.365C65.8203 19.495 66.0903 19.56 66.4003 19.56C66.8803 19.56 67.2453 19.42 67.4953 19.14C67.7553 18.85 67.8853 18.44 67.8853 17.91V13.8H69.5353V17.985C69.5353 18.615 69.4003 19.17 69.1303 19.65C68.8703 20.12 68.5053 20.49 68.0353 20.76C67.5653 21.02 67.0203 21.15 66.4003 21.15ZM71.1943 21V13.8H72.8443V21H71.1943ZM72.8443 16.995L72.2743 16.71C72.2743 15.8 72.4743 15.065 72.8743 14.505C73.2843 13.935 73.8993 13.65 74.7193 13.65C75.0793 13.65 75.4043 13.715 75.6943 13.845C75.9843 13.975 76.2543 14.185 76.5043 14.475L75.4243 15.585C75.2943 15.445 75.1493 15.345 74.9893 15.285C74.8293 15.225 74.6443 15.195 74.4343 15.195C73.9743 15.195 73.5943 15.34 73.2943 15.63C72.9943 15.92 72.8443 16.375 72.8443 16.995ZM79.4966 21.15C79.0966 21.15 78.7116 21.1 78.3416 21C77.9716 20.89 77.6316 20.74 77.3216 20.55C77.0116 20.35 76.7416 20.11 76.5116 19.83L77.5616 18.78C77.8116 19.07 78.0966 19.29 78.4166 19.44C78.7466 19.58 79.1166 19.65 79.5266 19.65C79.8966 19.65 80.1766 19.595 80.3666 19.485C80.5566 19.375 80.6516 19.215 80.6516 19.005C80.6516 18.785 80.5616 18.615 80.3816 18.495C80.2016 18.375 79.9666 18.275 79.6766 18.195C79.3966 18.105 79.0966 18.015 78.7766 17.925C78.4666 17.835 78.1666 17.715 77.8766 17.565C77.5966 17.405 77.3666 17.19 77.1866 16.92C77.0066 16.65 76.9166 16.3 76.9166 15.87C76.9166 15.41 77.0216 15.015 77.2316 14.685C77.4516 14.355 77.7566 14.1 78.1466 13.92C78.5466 13.74 79.0216 13.65 79.5716 13.65C80.1516 13.65 80.6616 13.755 81.1016 13.965C81.5516 14.165 81.9266 14.47 82.2266 14.88L81.1766 15.93C80.9666 15.67 80.7266 15.475 80.4566 15.345C80.1866 15.215 79.8766 15.15 79.5266 15.15C79.1966 15.15 78.9416 15.2 78.7616 15.3C78.5816 15.4 78.4916 15.545 78.4916 15.735C78.4916 15.935 78.5816 16.09 78.7616 16.2C78.9416 16.31 79.1716 16.405 79.4516 16.485C79.7416 16.565 80.0416 16.655 80.3516 16.755C80.6716 16.845 80.9716 16.975 81.2516 17.145C81.5416 17.305 81.7766 17.525 81.9566 17.805C82.1366 18.075 82.2266 18.43 82.2266 18.87C82.2266 19.57 81.9816 20.125 81.4916 20.535C81.0016 20.945 80.3366 21.15 79.4966 21.15Z" fill="white"/>
</g>
</g>
<defs>
<filter id="filter0_d_40_47" x="0" y="0" width="97" height="37" filterUnits="userSpaceOnUse" color-interpolation-filters="sRGB">
<feFlood flood-opacity="0" result="BackgroundImageFix"/>
<feColorMatrix in="SourceAlpha" type="matrix" values="0 0 0 0 0 0 0 0 0 0 0 0 0 0 0 0 0 0 127 0" result="hardAlpha"/>
<feOffset dy="2"/>
<feGaussianBlur stdDeviation="4"/>
<feColorMatrix type="matrix" values="0 0 0 0 0 0 0 0 0 0 0 0 0 0 0 0 0 0 0.12 0"/>
<feBlend mode="normal" in2="BackgroundImageFix" result="effect1_dropShadow_40_47"/>
<feBlend mode="normal" in="SourceGraphic" in2="effect1_dropShadow_40_47" result="shape"/>
</filter>
<filter id="filter1_d_40_47" x="14.39" y="10.3501" width="69.8365" height="15.6499" filterUnits="userSpaceOnUse" color-interpolation-filters="sRGB">
<feFlood flood-opacity="0" result="BackgroundImageFix"/>
<feColorMatrix in="SourceAlpha" type="matrix" values="0 0 0 0 0 0 0 0 0 0 0 0 0 0 0 0 0 0 127 0" result="hardAlpha"/>
<feOffset dx="1" dy="1"/>
<feGaussianBlur stdDeviation="0.5"/>
<feComposite in2="hardAlpha" operator="out"/>
<feColorMatrix type="matrix" values="0 0 0 0 0.113725 0 0 0 0 0.117647 0 0 0 0 0.121569 0 0 0 0.3 0"/>
<feBlend mode="normal" in2="BackgroundImageFix" result="effect1_dropShadow_40_47"/>
<feBlend mode="normal" in="SourceGraphic" in2="effect1_dropShadow_40_47" result="shape"/>
</filter>
<linearGradient id="paint0_linear_40_47" x1="11.1641" y1="26.5078" x2="20.5274" y2="-10.5109" gradientUnits="userSpaceOnUse">
<stop stop-color="#E4831E"/>
<stop offset="1" stop-color="#FF564E"/>
</linearGradient>
</defs>
</svg>
