<svg width="312" height="73" viewBox="0 0 312 73" fill="none" xmlns="http://www.w3.org/2000/svg">
<g filter="url(#filter0_dd_43_1446)">
<rect x="12" y="6.43103" width="288" height="48" rx="6" fill="url(#paint0_linear_43_1446)" shape-rendering="crispEdges"/>
<path d="M83 25.251V35.611C83 36.401 83.87 36.881 84.54 36.451L92.68 31.271C93.3 30.881 93.3 29.981 92.68 29.581L84.54 24.411C83.87 23.981 83 24.461 83 25.251Z" fill="white"/>
<path d="M113.135 36.431H110.713V27.0248H107.612V25.0092H116.237V27.0248H113.135V36.431ZM123.002 27.5326C123.325 27.5326 123.593 27.556 123.807 27.6029L123.627 29.8373C123.434 29.7852 123.2 29.7592 122.924 29.7592C122.163 29.7592 121.57 29.9545 121.143 30.3451C120.721 30.7357 120.51 31.2826 120.51 31.9857V36.431H118.127V27.6967H119.932L120.283 29.1654H120.4C120.671 28.6758 121.036 28.2826 121.494 27.9857C121.958 27.6836 122.46 27.5326 123.002 27.5326ZM131.259 36.431L130.798 35.2435H130.736C130.335 35.7487 129.921 36.1003 129.494 36.2982C129.072 36.4909 128.52 36.5873 127.838 36.5873C126.999 36.5873 126.338 36.3477 125.853 35.8685C125.374 35.3894 125.134 34.7071 125.134 33.8217C125.134 32.8946 125.457 32.2123 126.103 31.7748C126.754 31.3321 127.733 31.0873 129.041 31.0404L130.556 30.9935V30.6107C130.556 29.7253 130.103 29.2826 129.197 29.2826C128.499 29.2826 127.679 29.4935 126.736 29.9154L125.947 28.306C126.952 27.78 128.067 27.517 129.291 27.517C130.463 27.517 131.361 27.7722 131.986 28.2826C132.611 28.793 132.923 29.5691 132.923 30.6107V36.431H131.259ZM130.556 32.3842L129.634 32.4154C128.942 32.4362 128.426 32.5612 128.088 32.7904C127.749 33.0196 127.58 33.3685 127.58 33.8373C127.58 34.5092 127.965 34.8451 128.736 34.8451C129.288 34.8451 129.728 34.6862 130.056 34.3685C130.39 34.0508 130.556 33.6289 130.556 33.1029V32.3842ZM135.603 25.4388C135.603 24.6628 136.035 24.2748 136.9 24.2748C137.764 24.2748 138.197 24.6628 138.197 25.4388C138.197 25.8086 138.087 26.0977 137.868 26.306C137.655 26.5092 137.332 26.6107 136.9 26.6107C136.035 26.6107 135.603 26.2201 135.603 25.4388ZM138.087 36.431H135.704V27.6967H138.087V36.431ZM143.298 36.431H140.915V24.2748H143.298V36.431ZM149.743 29.2279C149.238 29.2279 148.842 29.3894 148.555 29.7123C148.269 30.03 148.105 30.4831 148.063 31.0717H151.407C151.396 30.4831 151.243 30.03 150.946 29.7123C150.649 29.3894 150.248 29.2279 149.743 29.2279ZM150.079 36.5873C148.673 36.5873 147.574 36.1993 146.782 35.4232C145.99 34.6472 145.594 33.5482 145.594 32.1263C145.594 30.6628 145.959 29.5326 146.688 28.7357C147.423 27.9336 148.436 27.5326 149.727 27.5326C150.962 27.5326 151.923 27.8842 152.61 28.5873C153.298 29.2904 153.641 30.2618 153.641 31.5013V32.6576H148.008C148.034 33.3347 148.235 33.8633 148.61 34.2435C148.985 34.6237 149.511 34.8138 150.188 34.8138C150.714 34.8138 151.212 34.7592 151.68 34.6498C152.149 34.5404 152.639 34.3659 153.149 34.1263V35.9701C152.732 36.1784 152.287 36.3321 151.813 36.431C151.339 36.5352 150.761 36.5873 150.079 36.5873ZM160.774 27.5326C161.097 27.5326 161.365 27.556 161.578 27.6029L161.399 29.8373C161.206 29.7852 160.972 29.7592 160.696 29.7592C159.935 29.7592 159.341 29.9545 158.914 30.3451C158.493 30.7357 158.282 31.2826 158.282 31.9857V36.431H155.899V27.6967H157.703L158.055 29.1654H158.172C158.443 28.6758 158.808 28.2826 159.266 27.9857C159.729 27.6836 160.232 27.5326 160.774 27.5326ZM173.508 36.431L173.047 35.2435H172.984C172.583 35.7487 172.169 36.1003 171.742 36.2982C171.32 36.4909 170.768 36.5873 170.086 36.5873C169.247 36.5873 168.586 36.3477 168.101 35.8685C167.622 35.3894 167.383 34.7071 167.383 33.8217C167.383 32.8946 167.705 32.2123 168.351 31.7748C169.002 31.3321 169.981 31.0873 171.289 31.0404L172.804 30.9935V30.6107C172.804 29.7253 172.351 29.2826 171.445 29.2826C170.747 29.2826 169.927 29.4935 168.984 29.9154L168.195 28.306C169.2 27.78 170.315 27.517 171.539 27.517C172.711 27.517 173.609 27.7722 174.234 28.2826C174.859 28.793 175.172 29.5691 175.172 30.6107V36.431H173.508ZM172.804 32.3842L171.883 32.4154C171.19 32.4362 170.674 32.5612 170.336 32.7904C169.997 33.0196 169.828 33.3685 169.828 33.8373C169.828 34.5092 170.213 34.8451 170.984 34.8451C171.536 34.8451 171.976 34.6862 172.304 34.3685C172.638 34.0508 172.804 33.6289 172.804 33.1029V32.3842ZM186.015 36.431H183.632V31.3295C183.632 30.6993 183.52 30.2279 183.296 29.9154C183.072 29.5977 182.716 29.4388 182.226 29.4388C181.559 29.4388 181.077 29.6628 180.781 30.1107C180.484 30.5534 180.335 31.2904 180.335 32.3217V36.431H177.952V27.6967H179.773L180.093 28.8138H180.226C180.492 28.392 180.856 28.0743 181.32 27.8607C181.788 27.642 182.32 27.5326 182.913 27.5326C183.929 27.5326 184.7 27.8086 185.226 28.3607C185.752 28.9076 186.015 29.6993 186.015 30.7357V36.431ZM194.882 33.8373C194.882 34.7331 194.569 35.4154 193.944 35.8842C193.325 36.3529 192.395 36.5873 191.155 36.5873C190.52 36.5873 189.978 36.543 189.53 36.4545C189.082 36.3711 188.663 36.2461 188.272 36.0795V34.1107C188.715 34.3191 189.213 34.4935 189.765 34.6342C190.322 34.7748 190.812 34.8451 191.233 34.8451C192.098 34.8451 192.53 34.5951 192.53 34.0951C192.53 33.9076 192.473 33.7566 192.358 33.642C192.244 33.5222 192.046 33.3894 191.765 33.2435C191.483 33.0925 191.108 32.918 190.64 32.7201C189.968 32.4388 189.473 32.1784 189.155 31.9388C188.843 31.6993 188.614 31.4258 188.468 31.1185C188.327 30.806 188.257 30.4232 188.257 29.9701C188.257 29.1941 188.556 28.5951 189.155 28.1732C189.759 27.7461 190.614 27.5326 191.718 27.5326C192.77 27.5326 193.793 27.7618 194.788 28.2201L194.069 29.9388C193.632 29.7513 193.223 29.5977 192.843 29.4779C192.463 29.3581 192.075 29.2982 191.679 29.2982C190.976 29.2982 190.624 29.4883 190.624 29.8685C190.624 30.0821 190.736 30.267 190.96 30.4232C191.189 30.5795 191.687 30.8112 192.452 31.1185C193.134 31.3946 193.634 31.6524 193.952 31.892C194.27 32.1316 194.504 32.4076 194.655 32.7201C194.806 33.0326 194.882 33.405 194.882 33.8373ZM200.678 29.2279C200.173 29.2279 199.777 29.3894 199.491 29.7123C199.204 30.03 199.04 30.4831 198.999 31.0717H202.342C202.332 30.4831 202.178 30.03 201.882 29.7123C201.585 29.3894 201.184 29.2279 200.678 29.2279ZM201.014 36.5873C199.608 36.5873 198.509 36.1993 197.717 35.4232C196.926 34.6472 196.53 33.5482 196.53 32.1263C196.53 30.6628 196.895 29.5326 197.624 28.7357C198.358 27.9336 199.371 27.5326 200.663 27.5326C201.897 27.5326 202.858 27.8842 203.546 28.5873C204.233 29.2904 204.577 30.2618 204.577 31.5013V32.6576H198.944C198.97 33.3347 199.171 33.8633 199.546 34.2435C199.921 34.6237 200.447 34.8138 201.124 34.8138C201.65 34.8138 202.147 34.7592 202.616 34.6498C203.085 34.5404 203.574 34.3659 204.085 34.1263V35.9701C203.668 36.1784 203.223 36.3321 202.749 36.431C202.275 36.5352 201.697 36.5873 201.014 36.5873ZM214.897 36.431H212.514V31.3295C212.514 30.0691 212.045 29.4388 211.108 29.4388C210.441 29.4388 209.959 29.6654 209.662 30.1185C209.366 30.5717 209.217 31.306 209.217 32.3217V36.431H206.834V24.2748H209.217V26.7513C209.217 26.9441 209.199 27.3972 209.162 28.1107L209.108 28.8138H209.233C209.764 27.9597 210.608 27.5326 211.764 27.5326C212.79 27.5326 213.569 27.8086 214.1 28.3607C214.631 28.9128 214.897 29.7045 214.897 30.7357V36.431ZM221.287 29.2279C220.782 29.2279 220.386 29.3894 220.1 29.7123C219.813 30.03 219.649 30.4831 219.608 31.0717H222.951C222.941 30.4831 222.787 30.03 222.49 29.7123C222.193 29.3894 221.792 29.2279 221.287 29.2279ZM221.623 36.5873C220.217 36.5873 219.118 36.1993 218.326 35.4232C217.535 34.6472 217.139 33.5482 217.139 32.1263C217.139 30.6628 217.503 29.5326 218.233 28.7357C218.967 27.9336 219.98 27.5326 221.272 27.5326C222.506 27.5326 223.467 27.8842 224.154 28.5873C224.842 29.2904 225.186 30.2618 225.186 31.5013V32.6576H219.553C219.579 33.3347 219.779 33.8633 220.154 34.2435C220.529 34.6237 221.055 34.8138 221.733 34.8138C222.259 34.8138 222.756 34.7592 223.225 34.6498C223.693 34.5404 224.183 34.3659 224.693 34.1263V35.9701C224.277 36.1784 223.831 36.3321 223.358 36.431C222.884 36.5352 222.305 36.5873 221.623 36.5873ZM235.506 36.431H233.123V31.3295C233.123 30.6993 233.011 30.2279 232.787 29.9154C232.563 29.5977 232.206 29.4388 231.717 29.4388C231.05 29.4388 230.568 29.6628 230.271 30.1107C229.974 30.5534 229.826 31.2904 229.826 32.3217V36.431H227.443V27.6967H229.263L229.584 28.8138H229.717C229.982 28.392 230.347 28.0743 230.81 27.8607C231.279 27.642 231.81 27.5326 232.404 27.5326C233.42 27.5326 234.191 27.8086 234.717 28.3607C235.243 28.9076 235.506 29.6993 235.506 30.7357V36.431Z" fill="white"/>
</g>
<defs>
<filter id="filter0_dd_43_1446" x="0" y="0.43103" width="312" height="72" filterUnits="userSpaceOnUse" color-interpolation-filters="sRGB">
<feFlood flood-opacity="0" result="BackgroundImageFix"/>
<feColorMatrix in="SourceAlpha" type="matrix" values="0 0 0 0 0 0 0 0 0 0 0 0 0 0 0 0 0 0 127 0" result="hardAlpha"/>
<feOffset dy="6"/>
<feGaussianBlur stdDeviation="6"/>
<feColorMatrix type="matrix" values="0 0 0 0 0 0 0 0 0 0 0 0 0 0 0 0 0 0 0.1 0"/>
<feBlend mode="normal" in2="BackgroundImageFix" result="effect1_dropShadow_43_1446"/>
<feColorMatrix in="SourceAlpha" type="matrix" values="0 0 0 0 0 0 0 0 0 0 0 0 0 0 0 0 0 0 127 0" result="hardAlpha"/>
<feOffset dy="1"/>
<feGaussianBlur stdDeviation="2"/>
<feComposite in2="hardAlpha" operator="out"/>
<feColorMatrix type="matrix" values="0 0 0 0 0 0 0 0 0 0 0 0 0 0 0 0 0 0 0.08 0"/>
<feBlend mode="normal" in2="effect1_dropShadow_43_1446" result="effect2_dropShadow_43_1446"/>
<feBlend mode="normal" in="SourceGraphic" in2="effect2_dropShadow_43_1446" result="shape"/>
</filter>
<linearGradient id="paint0_linear_43_1446" x1="23.25" y1="53.306" x2="37.5115" y2="-34.4025" gradientUnits="userSpaceOnUse">
<stop stop-color="#E4831E"/>
<stop offset="1" stop-color="#FF564E"/>
</linearGradient>
</defs>
</svg>
